# xmcd
#
# Track frame offsets: 
#        150
#        17502
#        35628
#        52489
#        70715
#        88151
#        105541
#        119908
#        132995
#        162321
#        185203
#        199242
#        215800
#
# Disc length: 3090 seconds
#
# Revision: 1
# Processed by: cddbd v1.5.2PL0 Copyright (c) Steve Scherf et al.
# Submitted via: ExactAudioCopy v1.3
#
DISCID=d10c100d
DTITLE=Jerome Godboo - Rooting Out My Devils
DYEAR=2010
DGENRE=Blues
TTITLE0=Distant Satellite
TTITLE1=Rooting Out My Devils
TTITLE2=Where's that Money
TTITLE3=Jamaican Woman
TTITLE4=Choo Choo
TTITLE5=Graceful Surrender
TTITLE6=Get on Your Bike
TTITLE7=It's a Shame
TTITLE8=Tonight I Bleed Again
TTITLE9=Sing for My Supper
TTITLE10=Seventh Day
TTITLE11=Cheap Wine and Cigarettes
TTITLE12=Spin Cycle
EXTD=YEAR: 2010
EXTT0=
EXTT1=
EXTT2=
EXTT3=
EXTT4=
EXTT5=
EXTT6=
EXTT7=
EXTT8=
EXTT9=
EXTT10=
EXTT11=
EXTT12=
PLAYORDER=
